<svg width="40" height="31" viewBox="0 0 40 31" fill="none" xmlns="http://www.w3.org/2000/svg">
<path d="M33.2554 2.54247C30.7129 1.36425 28.0051 0.496091 25.1525 0C24.8011 0.620114 24.3877 1.4676 24.119 2.14973C21.1011 1.69498 18.1039 1.69498 15.1481 2.14973C14.8587 1.4676 14.4453 0.620114 14.0939 0C11.2413 0.496091 8.53351 1.36425 5.99104 2.54247C0.864767 10.2732 -0.520154 17.818 0.161971 25.2387C3.5726 27.7812 6.8592 29.3108 10.1045 30.3236C10.9106 29.2281 11.6134 28.0499 12.2335 26.8303C11.0553 26.3962 9.9391 25.8381 8.8849 25.1974C9.17429 24.9906 9.44301 24.7633 9.71172 24.5566C16.1816 27.5745 23.1888 27.5745 29.576 24.5566C29.8447 24.7839 30.1134 24.9906 30.4028 25.1974C29.3486 25.8381 28.2118 26.3756 27.0542 26.8303C27.6743 28.0499 28.3771 29.2281 29.1833 30.3236C32.4285 29.3108 35.7358 27.7812 39.1258 25.2387C39.9319 16.6191 37.7408 9.15701 33.2967 2.54247H33.2554ZM13.1017 20.6912C11.1587 20.6912 9.56703 18.8929 9.56703 16.6811C9.56703 14.4694 11.1173 12.6711 13.1017 12.6711C15.086 12.6711 16.657 14.4694 16.6363 16.6811C16.6363 18.8722 15.086 20.6912 13.1017 20.6912ZM26.1447 20.6912C24.2017 20.6912 22.6101 18.8929 22.6101 16.6811C22.6101 14.4694 24.1604 12.6711 26.1447 12.6711C28.1291 12.6711 29.7 14.4694 29.6794 16.6811C29.6794 18.8722 28.1291 20.6912 26.1447 20.6912Z" fill="white"/>
</svg>
