<svg width="40" height="40" viewBox="0 0 40 40" fill="none" xmlns="http://www.w3.org/2000/svg">
<path d="M19.6451 0C8.79426 0 0 8.79426 0 19.6451C0 30.496 8.79426 39.2902 19.6451 39.2902C30.496 39.2902 39.2902 30.496 39.2902 19.6451C39.2902 8.79426 30.496 0 19.6451 0ZM14.1506 27.8638H10.3214V15.6087H14.1506V27.8638ZM12.1324 14.0739H12.1017C10.7127 14.0739 9.81489 13.1377 9.81489 11.9482C9.81489 10.7358 10.7434 9.82256 12.1554 9.82256C13.5674 9.82256 14.4346 10.7358 14.4653 11.9482C14.4729 13.13 13.5751 14.0739 12.1324 14.0739ZM29.4677 27.8638H25.1243V21.5252C25.1243 19.8677 24.449 18.7319 22.9526 18.7319C21.8092 18.7319 21.1722 19.4993 20.8806 20.236C20.7732 20.4969 20.7885 20.8653 20.7885 21.2413V27.8638H16.4835C16.4835 27.8638 16.5372 16.6293 16.4835 15.6087H20.7885V17.5348C21.0418 16.6907 22.4154 15.4936 24.6101 15.4936C27.3343 15.4936 29.4677 17.2585 29.4677 21.0494V27.8638Z" fill="white"/>
</svg>
