<svg width="900" height="334" viewBox="0 0 900 334" fill="none" xmlns="http://www.w3.org/2000/svg">
<g filter="url(#filter0_d_1642_4)">
<rect x="667.776" y="100.583" width="132.222" height="132.222" fill="black"/>
<path d="M735.686 221.928C704.769 221.928 686.686 197.136 686.686 168.99V168.699C686.686 140.553 705.061 115.469 735.978 115.469C766.895 115.469 784.978 140.261 784.978 168.407V168.699C784.978 196.845 766.603 221.928 735.686 221.928ZM735.686 188.735C742.455 188.735 751.145 182.699 751.145 168.699C751.145 154.699 743.422 149.27 735.978 149.27C728.533 149.27 720.519 154.407 720.519 168.407C720.519 182.407 728.917 188.735 735.686 188.735Z" fill="white"/>
<rect x="535.424" y="100.525" width="132.222" height="132.222" fill="white"/>
<path d="M604.7 217.514L606.899 200.05H550.911L603.837 115.758H632.98V176.234H645.23V200.05H632.98V217.514H604.7ZM591.616 176.234H604.7V153.187L591.616 176.234Z" fill="black"/>
<path d="M667.778 217.515C669.182 217.515 670.573 217.239 671.87 216.701C673.168 216.164 674.347 215.376 675.34 214.383C676.333 213.39 677.121 212.211 677.658 210.914C678.196 209.616 678.472 208.225 678.472 206.821C678.472 205.417 678.196 204.026 677.658 202.728C677.121 201.431 676.333 200.252 675.34 199.259C674.347 198.266 673.168 197.478 671.87 196.941C670.573 196.403 669.182 196.126 667.778 196.126L667.778 206.821L667.778 217.515Z" fill="white"/>
<path d="M667.777 217.515C666.373 217.515 664.982 217.239 663.684 216.701C662.387 216.164 661.208 215.376 660.215 214.383C659.222 213.39 658.434 212.211 657.897 210.914C657.359 209.616 657.083 208.225 657.083 206.821C657.083 205.417 657.359 204.026 657.897 202.728C658.434 201.431 659.222 200.252 660.215 199.259C661.208 198.266 662.387 197.478 663.684 196.941C664.982 196.403 666.373 196.126 667.777 196.126L667.777 206.821L667.777 217.515Z" fill="black"/>
<rect x="366.543" y="100" width="133.272" height="133.272" fill="black"/>
<path d="M387.834 218.63V116.547H426.918C467.46 116.547 487.73 136.38 487.73 166.713V167.005C487.73 197.338 467.022 218.63 425.751 218.63H387.834ZM427.647 146.297H421.96V188.88H427.647C443.397 188.88 453.314 182.463 453.314 167.734V167.443C453.314 152.713 443.397 146.297 427.647 146.297Z" fill="white"/>
<rect x="233.271" y="100" width="133.272" height="133.272" fill="white"/>
<path d="M239.97 218.994L299.616 116.182L359.845 218.994H323.473L317.407 205.286H280.79L274.466 218.994H239.97ZM292.416 181.078H305.678L299.076 167.01L292.416 181.078Z" fill="black"/>
<rect x="100" y="100" width="133.272" height="133.272" fill="black"/>
<path d="M168.971 221.279C134.288 221.279 116.033 199.987 116.033 168.341V168.05C116.033 137.571 134.19 114.821 170.283 114.821C196.862 114.821 208.637 129.841 217.241 145.446L188.366 157.212C184.429 149.775 177.305 145.446 169.846 145.446C156.538 145.446 148.157 155.946 148.157 168.196C148.157 181.467 157.544 190.654 169.846 190.654C179.616 190.654 184.137 186.196 188.366 178.613L217.241 190.654C208.637 205.821 194.2 221.279 168.971 221.279Z" fill="white"/>
</g>
<defs>
<filter id="filter0_d_1642_4" x="0" y="0" width="899.999" height="333.272" filterUnits="userSpaceOnUse" color-interpolation-filters="sRGB">
<feFlood flood-opacity="0" result="BackgroundImageFix"/>
<feColorMatrix in="SourceAlpha" type="matrix" values="0 0 0 0 0 0 0 0 0 0 0 0 0 0 0 0 0 0 127 0" result="hardAlpha"/>
<feOffset/>
<feGaussianBlur stdDeviation="50"/>
<feComposite in2="hardAlpha" operator="out"/>
<feColorMatrix type="matrix" values="0 0 0 0 1 0 0 0 0 1 0 0 0 0 1 0 0 0 0.12 0"/>
<feBlend mode="normal" in2="BackgroundImageFix" result="effect1_dropShadow_1642_4"/>
<feBlend mode="normal" in="SourceGraphic" in2="effect1_dropShadow_1642_4" result="shape"/>
</filter>
</defs>
</svg>
