<svg width="119" height="72" viewBox="0 0 119 72" fill="none" xmlns="http://www.w3.org/2000/svg">
<path d="M79.3567 35.3842L60.2861 6.16976L74.4874 6.15447C74.4874 6.15447 76.3622 6.10713 77.0481 6.56438C77.734 7.02163 78.1394 7.67009 78.1394 7.67009L92.7466 29.7036C92.7466 29.7036 94.7754 32.1382 94.7754 34.9785C94.7754 37.8188 92.7466 40.2533 92.7466 40.2533L77.8914 62.1825C77.8914 62.1825 76.3311 64.82 74.9996 65.1529C73.7704 65.4601 71.7219 65.3577 71.7219 65.3577L59.4746 65.4102L79.3567 35.3842Z" fill="#FF6B01"/>
<path d="M96.3042 40.677L89.2607 51.0821L96.9457 62.9541C96.9457 62.9541 97.1291 63.4184 98.2773 64.491C99.4251 65.5632 102.067 65.4105 102.067 65.4105L118.602 65.4099L103.44 42.7734L97.905 34.1137C97.905 34.1137 98.1547 35.4652 97.7449 37.1552C97.3352 38.8453 96.3042 40.677 96.3042 40.677Z" fill="#7B2E09"/>
<path d="M95.4064 27.8062L90.8574 20.8952L99.9857 3.94063C99.9857 3.94063 101.009 2.39012 102.223 1.56635C103.746 0.533079 107.851 0.662956 107.851 0.662956H118.197L103.542 27.8062C103.542 27.8062 102.36 29.74 99.6572 29.8548C96.8716 29.973 95.4064 27.8062 95.4064 27.8062Z" fill="#7B2E09"/>
<g filter="url(#filter0_d_1642_167)">
<path d="M51.1602 4.80249C67.8435 4.80249 74.6905 16.2556 75.6863 31.7134C75.8494 34.2451 75.0661 36.7335 73.6625 38.8468L57.3623 63.3894C56.1275 65.0562 54.2711 66.1952 52.1977 66.2577C51.856 66.268 51.5102 66.2732 51.1602 66.2732C33.4818 66.2732 26.5 52.2269 26.5 35.8679C26.5 19.0133 33.0137 4.80252 51.1602 4.80249ZM51.1602 18.2488C46.3498 18.2488 40.2666 21.771 40.2666 35.2175C40.2666 48.6641 47.1662 52.0261 51.1602 52.0261C55.1541 52.0261 61.7178 49.1444 61.7178 35.2175C61.7178 21.2907 55.9705 18.2488 51.1602 18.2488Z" fill="white"/>
</g>
<path d="M0.641538 28.4123C0.288016 28.4213 0 28.1335 0 27.7799V15.7121C0 15.4761 0.128216 15.26 0.33424 15.1448C1.18739 14.6681 3.49145 13.335 5.09617 11.9815C7.08129 10.307 9.21423 7.04646 9.85102 6.03759C9.97052 5.84826 10.1775 5.73267 10.4013 5.73267H23.0351C23.3887 5.73267 23.6754 6.01935 23.6754 6.37298V66.6484C23.6754 67.002 23.3887 67.2887 23.0351 67.2887H9.52859C9.17495 67.2887 8.88827 67.002 8.88827 66.6483V26.1574C8.88827 25.5921 8.20468 25.3009 7.77868 25.6725C5.55679 27.6111 3.80982 28.3311 0.641538 28.4123Z" fill="white"/>
<defs>
<filter id="filter0_d_1642_167" x="24.8992" y="0.000107765" width="58.8123" height="71.0755" filterUnits="userSpaceOnUse" color-interpolation-filters="sRGB">
<feFlood flood-opacity="0" result="BackgroundImageFix"/>
<feColorMatrix in="SourceAlpha" type="matrix" values="0 0 0 0 0 0 0 0 0 0 0 0 0 0 0 0 0 0 127 0" result="hardAlpha"/>
<feOffset dx="3.20159"/>
<feGaussianBlur stdDeviation="2.40119"/>
<feComposite in2="hardAlpha" operator="out"/>
<feColorMatrix type="matrix" values="0 0 0 0 0 0 0 0 0 0 0 0 0 0 0 0 0 0 0.5 0"/>
<feBlend mode="normal" in2="BackgroundImageFix" result="effect1_dropShadow_1642_167"/>
<feBlend mode="normal" in="SourceGraphic" in2="effect1_dropShadow_1642_167" result="shape"/>
</filter>
</defs>
</svg>
