<svg width="36" height="36" viewBox="0 0 36 36" fill="none" xmlns="http://www.w3.org/2000/svg">
<path d="M17.8799 11.9167C14.5883 11.9167 11.9199 14.5849 11.9199 17.8762C11.9199 21.1675 14.5883 23.8357 17.8799 23.8357C21.1715 23.8357 23.8399 21.1675 23.8399 17.8762C23.8399 14.5849 21.1715 11.9167 17.8799 11.9167Z" fill="white"/>
<path fill-rule="evenodd" clip-rule="evenodd" d="M10.728 0C4.80309 0 0 4.80267 0 10.7271V25.0298C0 30.9542 4.80309 35.7569 10.728 35.7569H25.032C30.957 35.7569 35.76 30.9542 35.76 25.0298V10.7271C35.76 4.80267 30.957 0 25.032 0H10.728ZM8.344 17.8784C8.344 12.4327 12.3173 8.15894 17.88 8.15894C23.4427 8.15894 27.8133 12.4456 27.8133 17.8784C27.8133 23.3113 23.0453 27.585 17.88 27.585C12.7147 27.585 8.344 23.3242 8.344 17.8784ZM26.224 9.53516H28.608V7.15137H26.224V9.53516Z" fill="white"/>
</svg>
