<svg width="944" height="339" viewBox="0 0 944 339" fill="none" xmlns="http://www.w3.org/2000/svg">
<g opacity="0.96">
<path d="M232.386 293.092C231.37 294.108 230.159 294.904 228.753 295.48C227.357 296.046 225.833 296.329 224.183 296.329C222.532 296.329 221.009 296.046 219.612 295.48C218.216 294.913 217 294.117 215.965 293.092C214.94 292.057 214.139 290.846 213.563 289.459C212.996 288.063 212.713 286.544 212.713 284.904C212.713 283.253 212.996 281.735 213.563 280.348C214.139 278.951 214.94 277.74 215.965 276.715C217 275.69 218.216 274.894 219.612 274.327C221.009 273.761 222.532 273.478 224.183 273.478C225.823 273.478 227.342 273.766 228.738 274.342C230.145 274.908 231.351 275.695 232.357 276.7L230.115 278.986C229.383 278.156 228.504 277.506 227.479 277.037C226.463 276.559 225.35 276.32 224.139 276.32C222.967 276.32 221.888 276.534 220.901 276.964C219.915 277.384 219.056 277.985 218.323 278.766C217.591 279.537 217.02 280.446 216.609 281.49C216.209 282.535 216.009 283.673 216.009 284.904C216.009 286.134 216.209 287.272 216.609 288.317C217.02 289.362 217.591 290.275 218.323 291.056C219.056 291.827 219.915 292.428 220.901 292.858C221.888 293.278 222.967 293.488 224.139 293.488C225.35 293.488 226.463 293.253 227.479 292.784C228.504 292.306 229.378 291.652 230.101 290.822L232.386 293.092ZM256.339 295.89H253.116V276.759H246.246V273.917H263.209V276.759H256.339V295.89ZM294.941 295.89H291.352L286.327 287.291H280.981V295.89H277.758V273.917H286.283C287.924 273.917 289.33 274.186 290.502 274.723C291.674 275.26 292.577 276.027 293.212 277.023C293.847 278.019 294.164 279.21 294.164 280.597C294.164 282.15 293.769 283.458 292.978 284.523C292.187 285.587 291.068 286.344 289.623 286.793L294.941 295.89ZM280.981 284.567H286.064C287.568 284.567 288.744 284.225 289.594 283.541C290.443 282.848 290.868 281.886 290.868 280.656C290.868 279.435 290.443 278.483 289.594 277.799C288.754 277.106 287.577 276.759 286.064 276.759H280.981V284.567ZM323.772 295.89H310.002V273.917H313.225V293.048H323.772V295.89ZM370.389 289.869H365.511V294.762H362.859V289.869H357.967V287.467H362.859V282.574H365.511V287.467H370.389V289.869ZM407.587 295.89H404.203L413.139 273.917H416.596L425.517 295.89H422.133L419.936 290.367H409.784L407.587 295.89ZM410.883 287.526H418.837L414.853 277.491L410.883 287.526ZM453.967 295.89H440.197V273.917H443.42V293.048H453.967V295.89ZM473.921 295.89H470.698V276.759H463.828V273.917H480.791V276.759H473.921V295.89ZM526.91 289.869H522.032V294.762H519.381V289.869H514.488V287.467H519.381V282.574H522.032V287.467H526.91V289.869ZM562.277 295.89V273.917H568.899C571.574 273.917 573.884 274.362 575.827 275.25C577.771 276.129 579.265 277.389 580.31 279.03C581.355 280.67 581.877 282.628 581.877 284.904C581.877 287.169 581.355 289.127 580.31 290.778C579.265 292.418 577.771 293.683 575.827 294.572C573.884 295.45 571.574 295.89 568.899 295.89H562.277ZM565.5 293.048H569.03C571.052 293.048 572.776 292.731 574.201 292.096C575.627 291.451 576.711 290.524 577.453 289.313C578.205 288.092 578.581 286.622 578.581 284.904C578.581 283.175 578.205 281.705 577.453 280.494C576.711 279.283 575.627 278.361 574.201 277.726C572.776 277.081 571.052 276.759 569.03 276.759H565.5V293.048ZM597.158 295.89V273.917H610.855V276.759H600.381V283.336H610.254V286.178H600.381V293.048H611.001V295.89H597.158ZM640.858 295.89H627.088V273.917H630.311V293.048H640.858V295.89ZM655.904 295.89V273.917H669.601V276.759H659.127V283.336H669V286.178H659.127V293.048H669.747V295.89H655.904ZM694.257 295.89H691.034V276.759H684.164V273.917H701.127V276.759H694.257V295.89ZM715.676 295.89V273.917H729.372V276.759H718.899V283.336H728.772V286.178H718.899V293.048H729.519V295.89H715.676Z" fill="white"/>
<g filter="url(#filter0_d_1676_3273)">
<rect x="703.466" y="100.606" width="140.534" height="137.248" fill="black"/>
<path d="M775.646 226.561C742.786 226.561 723.565 200.827 723.565 171.612V171.309C723.565 142.094 743.096 116.057 775.956 116.057C808.816 116.057 828.036 141.791 828.036 171.006V171.309C828.036 200.525 808.506 226.561 775.646 226.561ZM775.646 192.107C782.84 192.107 792.076 185.841 792.076 171.309C792.076 156.777 783.868 151.142 775.956 151.142C768.043 151.142 759.526 156.474 759.526 171.006C759.526 185.538 768.451 192.107 775.646 192.107Z" fill="white"/>
<rect x="562.794" y="100.546" width="140.534" height="137.248" fill="white"/>
<path d="M636.425 221.982L638.763 203.854H579.255L635.508 116.358H666.484V179.133H679.504V203.854H666.484V221.982H636.425ZM622.519 179.133H636.425V155.21L622.519 179.133Z" fill="black"/>
<path d="M704.085 221.283C705.497 221.283 706.895 221.005 708.199 220.465C709.504 219.924 710.689 219.132 711.688 218.134C712.686 217.135 713.478 215.95 714.018 214.646C714.559 213.341 714.837 211.943 714.837 210.531C714.837 209.119 714.559 207.721 714.018 206.416C713.478 205.112 712.686 203.926 711.688 202.928C710.689 201.93 709.504 201.138 708.199 200.597C706.895 200.057 705.497 199.779 704.085 199.779L704.085 210.531V221.283Z" fill="white"/>
<path d="M702.855 221.98C701.443 221.98 700.044 221.702 698.74 221.161C697.435 220.621 696.25 219.829 695.252 218.831C694.253 217.832 693.461 216.647 692.921 215.342C692.381 214.038 692.103 212.64 692.103 211.228C692.103 209.816 692.381 208.418 692.921 207.113C693.461 205.809 694.253 204.623 695.252 203.625C696.25 202.626 697.435 201.834 698.74 201.294C700.045 200.754 701.443 200.476 702.855 200.476L702.855 211.228V221.98Z" fill="black"/>
<rect x="383.298" y="100" width="141.65" height="138.337" fill="black"/>
<path d="M405.927 223.139V117.176H447.467C490.557 117.176 512.102 137.763 512.102 169.249V169.552C512.102 201.038 490.092 223.139 446.227 223.139H405.927ZM448.242 148.056H442.197V192.258H448.242C464.982 192.258 475.522 185.597 475.522 170.309V170.006C475.522 154.717 464.982 148.056 448.242 148.056Z" fill="white"/>
<rect x="241.65" y="100" width="141.65" height="138.337" fill="white"/>
<path d="M248.77 223.516L312.165 116.796L376.18 223.516H337.522L331.075 209.287H292.155L285.434 223.516H248.77ZM304.513 184.159H318.609L311.591 169.556L304.513 184.159Z" fill="black"/>
<rect x="100" y="100" width="141.65" height="138.337" fill="black"/>
<path d="M173.306 225.887C136.443 225.887 117.041 203.787 117.041 170.938V170.635C117.041 138.998 136.34 115.383 174.701 115.383C202.951 115.383 215.467 130.975 224.612 147.172L193.921 159.386C189.736 151.665 182.164 147.172 174.236 147.172C160.093 147.172 151.184 158.071 151.184 170.787C151.184 184.562 161.162 194.099 174.236 194.099C184.621 194.099 189.426 189.471 193.921 181.6L224.612 194.099C215.467 209.842 200.121 225.887 173.306 225.887Z" fill="white"/>
</g>
</g>
<defs>
<filter id="filter0_d_1676_3273" x="0" y="0" width="944" height="338.337" filterUnits="userSpaceOnUse" color-interpolation-filters="sRGB">
<feFlood flood-opacity="0" result="BackgroundImageFix"/>
<feColorMatrix in="SourceAlpha" type="matrix" values="0 0 0 0 0 0 0 0 0 0 0 0 0 0 0 0 0 0 127 0" result="hardAlpha"/>
<feOffset/>
<feGaussianBlur stdDeviation="50"/>
<feComposite in2="hardAlpha" operator="out"/>
<feColorMatrix type="matrix" values="0 0 0 0 1 0 0 0 0 1 0 0 0 0 1 0 0 0 0.12 0"/>
<feBlend mode="normal" in2="BackgroundImageFix" result="effect1_dropShadow_1676_3273"/>
<feBlend mode="normal" in="SourceGraphic" in2="effect1_dropShadow_1676_3273" result="shape"/>
</filter>
</defs>
</svg>
